<?xml version="1.0" standalone="no"?><!DOCTYPE svg PUBLIC "-//W3C//DTD SVG 1.1//EN" "http://www.w3.org/Graphics/SVG/1.1/DTD/svg11.dtd"><svg t="1631963395699" class="icon" viewBox="0 0 1024 1024" version="1.1" xmlns="http://www.w3.org/2000/svg" p-id="2445" xmlns:xlink="http://www.w3.org/1999/xlink" width="200" height="200"><defs><style type="text/css"></style></defs><path d="M260.9 1024c-20.2 0-41-5.1-60.2-15.4-38-20.3-60.7-56.5-60.7-96.6V173.6C140.1 69.7 249.1 0 350.8 0h371.9c99.4 0 161.2 66.5 161.2 173.6V912c0 43.4-21.5 81.9-56.1 100.4-32.6 17.5-71.9 14.7-105.1-7.5l-0.5-0.3-171.4-118.5c-11.2-7.8-26-7.8-37.1-0.1l-190.2 119.5c-18.4 12.3-40.2 18.5-62.6 18.5z m89.9-949.6c-64.5 0-136.4 40.7-136.4 99.2V912c0 17.7 15 27.6 21.4 31 15.9 8.5 34.5 8.5 47.2 0l189.6-119c35-24.5 84.1-24.5 120.6 1l170.9 118.1c7.3 4.8 18.1 9.2 28.5 3.6 10.4-5.6 16.8-18.9 16.8-34.8V173.6c0-65.8-29.2-99.2-86.8-99.2H350.8z" fill="#27D0D8" p-id="2446"></path></svg>