<?xml version="1.0" standalone="no"?><!DOCTYPE svg PUBLIC "-//W3C//DTD SVG 1.1//EN" "http://www.w3.org/Graphics/SVG/1.1/DTD/svg11.dtd"><svg t="1630497603890" class="icon" viewBox="0 0 1024 1024" version="1.1" xmlns="http://www.w3.org/2000/svg" p-id="1326" xmlns:xlink="http://www.w3.org/1999/xlink" width="200" height="200"><defs><style type="text/css"></style></defs><path d="M765.338877 838.785863c36.191268 0 63.866944-27.675676 63.866944-63.866944s-29.804574-63.866944-63.866944-63.866944c-36.191268 0-63.866944 27.675676-63.866944 63.866944s27.675676 63.866944 63.866944 63.866944z" fill="#00D26E" p-id="1327"></path><path d="M460.906445 596.091476h-234.178794c-17.031185 0-31.933472 14.902287-31.933472 31.933472s12.773389 31.933472 31.933472 31.933472h234.178794c17.031185 0 31.933472-14.902287 31.933472-31.933472s-14.902287-31.933472-31.933472-31.933472zM588.640333 340.623701h-361.912682c-17.031185 0-31.933472 14.902287-31.933472 31.933472s12.773389 31.933472 31.933472 31.933471h361.912682c17.031185 0 31.933472-14.902287 31.933472-31.933471s-14.902287-31.933472-31.933472-31.933472zM850.494802 972.906445z m0 0l-85.155925 48.964657h17.031185c29.804574 0 57.480249-21.288981 68.12474-48.964657z" fill="#525866" p-id="1328"></path><path d="M765.338877 615.251559l102.187111 59.609148 38.320166 21.288981v159.66736L765.338877 936.715177l-138.378378-80.898129v-159.66736l138.378378-80.898129M780.241164 0h-659.95842C79.83368 0 45.77131 34.06237 45.77131 74.511435v872.848232c0 40.449064 34.06237 74.511435 74.511434 74.511435h642.927235l-110.702702-63.866944h-532.224533c-6.386694 0-10.644491-4.257796-10.64449-10.644491v-872.848232c0-6.386694 4.257796-10.644491 10.64449-10.644491h659.95842c6.386694 0 10.644491 4.257796 10.644491 10.644491v470.486486l-25.546778-14.902287-212.889813 123.476092v246.952183l212.889813 123.476091 212.889813-123.476091V651.442827l-170.31185-97.929313 46.835759 27.675675V74.511435c0-40.449064-31.933472-74.511435-74.511435-74.511435z" fill="#525866" p-id="1329"></path></svg>