<?xml version="1.0" standalone="no"?><!DOCTYPE svg PUBLIC "-//W3C//DTD SVG 1.1//EN" "http://www.w3.org/Graphics/SVG/1.1/DTD/svg11.dtd"><svg t="1630497515077" class="icon" viewBox="0 0 1025 1024" version="1.1" xmlns="http://www.w3.org/2000/svg" p-id="1192" xmlns:xlink="http://www.w3.org/1999/xlink" width="200.1953125" height="200"><defs><style type="text/css"></style></defs><path d="M357.244389 255.174563h246.668744c76.552369 0 133.966646-165.863466 133.966646-165.863466 0-48.908458-4.252909-87.184643-89.311097-89.311097h-4.252909c-80.805278 0-99.943371 59.540731-159.484102 59.540731-61.667186 0-93.564007-48.908458-170.116376-59.540731h-21.264547c-59.540731 0-70.173005 46.782003-70.173005 91.437552 0 0 59.540731 163.737012 133.966646 163.737011z m-57.414277-180.748649h4.252909c23.391002 4.252909 42.529094 12.758728 63.793641 25.517457 29.770366 14.885183 65.920096 36.14973 116.955009 36.14973 48.908458 0 82.931733-21.264547 108.449189-38.276185 21.264547-14.885183 31.89682-21.264547 51.034913-21.264547h2.126454c8.505819 0 12.758728 0 17.011638 2.126455-19.138092 44.655549-46.782003 93.564007-63.793641 104.19628H361.497298c-17.011638-10.632273-44.655549-57.414277-63.793641-102.069826 2.126455-4.252909 2.126455-4.252909 2.126455-6.379364zM597.533769 537.993038l29.770366-29.770366c14.885183-14.885183 14.885183-38.276185 0-53.161367-6.379364-6.379364-17.011638-10.632273-25.517456-10.632274-8.505819 0-19.138092 4.252909-25.517457 10.632274L489.08458 542.245947l-87.184643-87.184642c-6.379364-6.379364-17.011638-10.632273-25.517456-10.632274-8.505819 0-19.138092 4.252909-25.517456 10.632274-14.885183 14.885183-14.885183 38.276185 0 53.161367l97.816916 97.816916h-70.173005c-21.264547 0-38.276185 17.011638-38.276185 38.276185s17.011638 38.276185 38.276185 38.276184h74.425914v4.25291c23.391002-70.173005 76.552369-123.334372 144.598919-148.851829zM438.049667 733.62687h-61.667186c-21.264547 0-38.276185 17.011638-38.276184 38.276184s17.011638 38.276185 38.276184 38.276185h61.667186c-2.126455-17.011638-4.252909-34.023275-2.126454-51.034913 0-10.632273 2.126455-19.138092 2.126454-25.517456z" fill="#515151" p-id="1193"></path><path d="M1005.813071 954.778158l-131.840191-99.94337c10.632273-21.264547 14.885183-46.782003 17.011637-70.173005 6.379364-114.828554-80.805278-212.64547-195.633832-219.024834h-12.758728c-108.449189 0-199.886741 85.058188-206.266105 195.633832-6.379364 114.828554 80.805278 212.64547 195.633832 219.024834h12.758728c57.414277 0 110.575644-23.391002 146.725374-61.667187l129.713736 97.816916c17.011638 12.758728 40.402639 8.505819 53.161368-6.379364s8.505819-44.655549-8.505819-55.287822z m-323.221114-51.034912h-8.505819c-72.29946-4.252909-129.713736-68.04655-125.460827-140.34601 4.252909-70.173005 61.667186-125.460827 131.840192-125.460827h8.505818c36.14973 2.126455 68.04655 17.011638 91.437552 44.655548s36.14973 61.667186 34.023275 95.690462c-2.126455 70.173005-61.667186 125.460827-131.840191 125.460827z" fill="#00D26E" p-id="1194"></path><path d="M510.349127 952.651704v-6.379365H133.966646c-27.643911 0-57.414277-36.14973-59.540732-70.173004C91.437552 742.132689 178.622194 382.761845 357.244389 382.761845H616.671862c74.425914 0 131.840191 61.667186 176.495739 144.598919 23.391002-6.379364 48.908458-10.632273 74.425915-8.505818h6.379364c-55.287822-112.702099-136.093101-208.39256-255.174564-208.39256H357.244389C70.173005 306.209476 0 871.846425 0 871.846425c0 74.425914 59.540731 148.851829 133.966646 148.851829h384.8883c-6.379364-21.264547-8.505819-44.655549-8.505819-68.04655z" fill="#515151" p-id="1195"></path></svg>