<?xml version="1.0" standalone="no"?><!DOCTYPE svg PUBLIC "-//W3C//DTD SVG 1.1//EN" "http://www.w3.org/Graphics/SVG/1.1/DTD/svg11.dtd"><svg t="1631967638659" class="icon" viewBox="0 0 1024 1024" version="1.1" xmlns="http://www.w3.org/2000/svg" p-id="4522" xmlns:xlink="http://www.w3.org/1999/xlink" width="200" height="200"><defs><style type="text/css"></style></defs><path d="M653.66262 726.95856m-297.04144 0a297.04144 297.04144 0 1 0 594.08288 0 297.04144 297.04144 0 1 0-594.08288 0Z" fill="#5CF1E7" p-id="4523"></path><path d="M610.799498 209.60067h-342.904981a42.863123 42.863123 0 0 0 0 85.726245h342.904981a42.863123 42.863123 0 0 0 0-85.726245zM480.924236 382.339054h-214.315613a42.863123 42.863123 0 1 0 0 85.726245h214.315613a42.863123 42.863123 0 0 0 0-85.726245z" fill="#A8B9E9" p-id="4524"></path><path d="M708.956049 1022.714106a96.013395 96.013395 0 0 1-42.863123-10.287149l-4.714944-2.571787-223.7455-147.877774-219.459188 147.020511a16.716618 16.716618 0 0 1-4.714943 2.571787 96.442026 96.442026 0 0 1-140.162411-85.726245V144.020092A144.448723 144.448723 0 0 1 217.316032 0h444.490582a144.020092 144.020092 0 0 1 143.591461 144.020092v505.356216a42.863123 42.863123 0 0 1-85.726246 0V144.020092A57.865216 57.865216 0 0 0 661.806614 85.726245H217.316032A58.293847 58.293847 0 0 0 159.022185 144.020092v781.394726a10.715781 10.715781 0 0 0 14.573462 10.287149l240.033487-160.73671a42.863123 42.863123 0 0 1 47.578066 0l244.319799 161.165342a10.715781 10.715781 0 0 0 14.14483-10.28715v-78.439514a42.863123 42.863123 0 0 1 85.726246 0v78.439514A96.442026 96.442026 0 0 1 759.105902 1008.140645a100.299707 100.299707 0 0 1-50.149853 14.573461z" fill="#0060F7" p-id="4525"></path></svg>