<?xml version="1.0" standalone="no"?><!DOCTYPE svg PUBLIC "-//W3C//DTD SVG 1.1//EN" "http://www.w3.org/Graphics/SVG/1.1/DTD/svg11.dtd"><svg t="1631967779404" class="icon" viewBox="0 0 1024 1024" version="1.1" xmlns="http://www.w3.org/2000/svg" p-id="8394" xmlns:xlink="http://www.w3.org/1999/xlink" width="200" height="200"><defs><style type="text/css"></style></defs><path d="M512 574.08A232.746667 232.746667 0 1 1 744.746667 341.333333 232.96 232.96 0 0 1 512 574.08z m0-426.666667A193.92 193.92 0 1 0 705.92 341.333333 194.133333 194.133333 0 0 0 512 147.413333z" fill="#1296db" p-id="8395"></path><path d="M298.666667 923.52a42.666667 42.666667 0 0 1-32.213334-14.72 42.666667 42.666667 0 0 1-7.04-44.373333L341.333333 507.093333a21.333333 21.333333 0 1 1 41.386667 9.813334l-82.986667 359.253333a13.866667 13.866667 0 0 1-1.706666 4.693333l193.706666-64a65.706667 65.706667 0 0 1 40.533334 0l193.706666 64a13.866667 13.866667 0 0 1-1.706666-4.693333L640 516.906667a21.333333 21.333333 0 1 1 42.666667-9.813334l83.2 357.333334a42.666667 42.666667 0 0 1-7.04 44.373333 42.666667 42.666667 0 0 1-45.866667 12.586667l-193.493333-64a21.333333 21.333333 0 0 0-13.653334 0l-193.493333 64a50.56 50.56 0 0 1-13.653333 2.133333z" fill="#1296db" p-id="8396"></path></svg>